<?xml version="1.0" standalone="no"?>
<!DOCTYPE svg PUBLIC "-//W3C//DTD SVG 20010904//EN"
 "http://www.w3.org/TR/2001/REC-SVG-20010904/DTD/svg10.dtd">
<svg version="1.0" xmlns="http://www.w3.org/2000/svg"
 width="2398.000000pt" height="1500.000000pt" viewBox="0 0 2398.000000 1500.000000"
 preserveAspectRatio="xMidYMid meet">

<g transform="translate(0.000000,1500.000000) scale(0.100000,-0.100000)"
fill="#000000" stroke="none">
<path d="M10107 14966 c-87 -36 -174 -103 -308 -235 -93 -92 -334 -385 -420
-511 -24 -36 -67 -96 -96 -135 -29 -38 -61 -81 -71 -95 -10 -14 -29 -43 -42
-65 -13 -22 -71 -112 -129 -199 -158 -237 -157 -236 -191 -303 -37 -72 -70
-106 -102 -105 -13 0 -52 8 -88 18 -37 10 -102 18 -150 18 -119 1 -162 -22
-255 -140 -39 -49 -82 -107 -96 -129 -80 -124 -102 -160 -160 -258 -35 -60
-71 -121 -80 -135 -79 -135 -161 -300 -173 -349 -22 -84 -20 -182 5 -266 28
-95 53 -139 118 -209 65 -70 69 -94 29 -178 -45 -95 -98 -211 -98 -214 0 -6
-155 -328 -395 -821 -42 -88 -91 -188 -107 -222 -28 -61 -30 -62 -129 -115
-161 -84 -214 -123 -315 -230 -156 -164 -285 -428 -359 -737 -52 -213 -59
-539 -16 -743 31 -146 123 -367 163 -392 24 -15 53 14 90 92 17 35 41 76 53
91 11 14 29 38 38 54 54 86 243 250 388 338 49 30 167 115 179 130 3 3 19 13
37 22 35 19 193 145 238 191 128 133 181 231 215 403 23 110 23 149 4 403 l-5
75 69 105 c38 58 141 213 227 345 87 132 169 256 182 275 14 19 41 61 61 92
121 190 264 404 283 424 28 30 67 31 145 3 53 -20 81 -22 274 -23 118 -1 256
3 305 7 90 9 90 9 155 -25 118 -61 229 -145 531 -403 161 -138 177 -154 183
-188 9 -52 35 -623 46 -1017 5 -201 15 -451 21 -557 10 -179 10 -194 -7 -223
-13 -21 -31 -34 -59 -41 -22 -6 -62 -20 -90 -30 -27 -10 -75 -24 -105 -30 -30
-6 -64 -16 -75 -22 -10 -5 -49 -18 -85 -27 -36 -10 -153 -44 -260 -75 -107
-31 -231 -68 -275 -80 -44 -13 -125 -37 -180 -54 -55 -18 -147 -45 -205 -61
-58 -16 -136 -39 -175 -50 -38 -12 -106 -32 -150 -45 -44 -13 -105 -31 -135
-40 -100 -30 -254 -76 -320 -95 -104 -30 -227 -67 -340 -100 -58 -18 -143 -43
-190 -57 -47 -14 -119 -36 -160 -48 -41 -13 -91 -27 -110 -30 -19 -4 -53 -13
-75 -20 -22 -7 -94 -29 -160 -49 -270 -83 -356 -108 -585 -171 -74 -21 -151
-43 -170 -50 -69 -25 -343 -107 -515 -155 -264 -75 -317 -93 -334 -119 -13
-21 -17 -64 -19 -280 -4 -273 -2 -285 46 -313 25 -15 147 -62 262 -101 25 -9
90 -32 145 -52 55 -20 118 -42 140 -50 22 -7 78 -28 125 -45 47 -18 115 -43
153 -56 37 -13 98 -35 137 -49 38 -14 100 -36 137 -50 38 -13 106 -38 153 -55
171 -64 246 -91 295 -106 28 -9 55 -19 60 -24 13 -10 135 -54 270 -97 61 -19
151 -51 200 -70 95 -37 144 -55 265 -98 41 -15 102 -38 135 -50 33 -13 71 -26
85 -30 14 -4 44 -15 67 -26 24 -10 48 -19 53 -19 6 0 48 -14 93 -31 45 -17
111 -42 147 -55 36 -13 163 -59 282 -104 120 -44 222 -80 228 -80 5 0 38 -11
72 -25 62 -24 263 -98 428 -156 137 -50 206 -75 364 -133 82 -31 154 -56 160
-56 6 0 24 -7 39 -15 16 -8 57 -24 90 -35 34 -10 94 -31 132 -46 147 -55 262
-96 308 -109 26 -7 53 -18 60 -23 7 -6 37 -17 67 -26 30 -9 78 -25 105 -36 28
-10 113 -42 190 -70 77 -28 164 -60 193 -71 29 -12 71 -27 95 -34 23 -8 80
-28 127 -46 204 -76 282 -104 655 -237 77 -28 178 -64 225 -82 47 -17 155 -56
240 -86 196 -70 267 -96 355 -129 121 -45 208 -76 265 -95 30 -10 85 -30 123
-44 114 -44 114 -44 357 119 75 49 229 151 344 225 114 74 355 232 534 350
180 119 368 242 417 274 86 55 282 183 700 458 105 68 224 146 265 173 41 27
179 117 305 200 127 83 272 178 322 210 120 77 786 516 836 551 72 49 68 35
92 369 16 232 37 506 55 715 6 69 22 280 36 470 41 581 63 875 73 987 6 60 12
137 16 173 3 36 21 281 40 545 20 264 45 590 56 725 12 135 25 308 29 386 5
78 13 195 19 260 6 65 15 189 21 274 6 85 26 346 45 580 19 234 43 553 55 710
11 157 28 371 36 476 17 208 15 227 -32 244 -13 5 -97 14 -187 20 -89 6 -256
18 -372 26 -115 8 -273 19 -350 24 -77 6 -270 19 -430 30 -159 11 -456 31
-660 45 -651 43 -826 55 -1020 70 -104 8 -269 19 -365 25 -96 5 -299 19 -450
30 -151 11 -342 24 -425 30 -82 6 -240 17 -350 25 -110 8 -276 19 -370 25
-325 20 -761 50 -875 60 -63 5 -218 17 -345 25 -126 9 -381 27 -565 40 -184
14 -402 29 -485 35 -487 34 -478 34 -494 1 -8 -17 2 -794 18 -1411 10 -384 8
-402 -39 -408 -44 -5 -247 134 -275 188 -12 23 -18 85 -25 253 -5 122 -12 233
-16 247 -22 89 -49 160 -77 209 -46 81 -49 97 -26 150 43 95 121 265 180 389
27 56 49 107 49 111 0 5 27 67 61 137 33 71 74 167 90 214 15 47 42 123 59
170 116 328 153 571 105 685 -34 82 -122 106 -228 61z m-17 -327 c0 -50 -96
-345 -170 -524 -23 -55 -57 -138 -76 -185 -19 -47 -48 -113 -64 -148 -17 -35
-30 -65 -30 -67 0 -2 -18 -43 -41 -92 -22 -48 -57 -124 -77 -168 -60 -130 -70
-145 -103 -145 -15 0 -50 8 -76 17 -36 13 -84 17 -190 17 -163 1 -161 0 -113
78 17 26 30 52 30 57 0 5 7 14 16 22 8 7 24 29 35 48 24 44 56 93 132 203 31
45 77 112 101 148 25 36 52 74 61 85 8 11 65 87 125 169 61 81 122 162 135
180 47 57 80 96 113 133 18 20 63 72 100 115 68 79 92 94 92 57z m-1458 -1535
c109 -34 146 -52 153 -74 3 -11 -18 -65 -54 -136 -66 -132 -119 -261 -122
-296 -5 -55 2 -68 55 -105 78 -55 85 -71 55 -136 -48 -104 -144 -253 -240
-372 -110 -136 -132 -147 -226 -109 -177 71 -293 205 -293 338 0 56 6 73 71
201 77 153 72 143 145 265 29 47 59 99 68 115 9 17 22 39 29 50 6 11 27 45 46
75 52 83 140 190 164 200 36 14 61 11 149 -16z m808 -45 c75 -27 145 -77 178
-127 45 -70 60 -158 71 -418 10 -252 17 -276 92 -355 54 -58 244 -188 347
-239 188 -92 312 -150 372 -175 36 -15 88 -37 115 -50 88 -39 168 -72 255
-105 128 -49 528 -229 760 -342 230 -113 414 -231 530 -338 84 -78 104 -84
176 -50 23 11 69 25 103 31 112 20 172 -20 220 -146 98 -261 150 -653 106
-802 -26 -87 -104 -149 -276 -217 -43 -17 -100 -30 -165 -36 -54 -5 -126 -12
-159 -15 -120 -13 -248 29 -395 126 -30 20 -107 71 -170 112 -154 101 -183
122 -287 204 -48 38 -110 85 -138 104 -27 18 -90 68 -140 109 -49 42 -136 113
-193 158 -96 78 -121 99 -182 155 -14 13 -54 47 -90 77 -36 30 -110 95 -165
145 -136 122 -302 258 -520 423 -88 67 -217 145 -283 172 -42 17 -219 17 -333
1 -73 -11 -105 -10 -215 4 -71 9 -134 21 -141 27 -18 14 -15 58 5 89 121 191
204 331 310 529 20 36 46 83 59 105 12 22 26 46 30 54 4 8 33 61 65 118 76
135 76 149 -3 202 -85 57 -100 59 -169 26 -68 -33 -138 -36 -215 -10 -66 22
-85 41 -85 82 0 81 163 327 249 374 31 17 49 19 141 15 58 -3 121 -10 140 -17z
m4905 -499 c69 -34 99 -57 157 -119 88 -94 142 -171 162 -231 8 -25 26 -79 39
-120 14 -41 43 -124 65 -185 23 -60 46 -132 52 -160 6 -27 17 -68 25 -90 25
-68 67 -390 68 -520 1 -123 0 -129 -50 -220 -22 -40 -92 -128 -110 -138 -38
-22 -40 -9 -46 305 -3 170 -11 323 -17 348 -6 25 -18 83 -26 130 -21 129 -93
346 -157 474 -65 132 -166 241 -267 290 -63 30 -69 31 -205 31 -109 0 -152 -5
-193 -19 -41 -14 -56 -15 -67 -6 -16 14 -11 32 24 80 101 136 229 203 378 196
73 -3 93 -9 168 -46z m-5341 -287 c-7 -25 -41 -69 -49 -62 -9 10 27 79 41 79
7 0 10 -8 8 -17z m5077 -143 c41 -12 114 -70 133 -109 7 -14 16 -43 20 -64 4
-20 18 -59 31 -86 14 -27 25 -56 25 -64 0 -8 9 -37 21 -64 11 -26 27 -79 35
-118 8 -38 21 -99 29 -135 19 -82 38 -447 30 -560 -11 -133 -3 -121 -165 -243
-82 -62 -289 -177 -319 -177 -6 0 -18 11 -27 25 -14 21 -14 37 -4 137 24 226
-24 522 -117 713 -69 143 -173 285 -209 285 -18 0 -112 79 -119 100 -14 43 -4
52 234 220 169 119 305 167 402 140z m-5291 -219 c0 -17 -191 -342 -232 -396
-19 -24 -118 -178 -118 -183 0 -13 -45 -52 -60 -52 -10 0 -65 27 -123 60 -59
33 -109 60 -113 60 -3 0 -19 9 -35 21 -31 22 -38 58 -16 81 7 7 22 31 33 53
18 38 21 40 59 37 148 -10 200 -6 250 19 115 57 196 128 304 267 31 40 51 53
51 33z m4267 -190 c121 -32 211 -93 306 -209 31 -38 64 -86 73 -108 9 -21 31
-70 49 -109 17 -38 39 -86 48 -105 22 -49 54 -192 68 -300 9 -70 9 -122 0
-218 -6 -70 -11 -197 -11 -283 l0 -157 -53 -39 c-47 -36 -254 -143 -276 -143
-10 0 -114 -45 -153 -66 -25 -13 -29 -13 -48 6 -18 18 -20 33 -20 158 -1 154
-10 242 -41 375 -26 113 -93 322 -129 402 -53 117 -148 194 -279 225 -51 12
-93 11 -231 -6 -51 -6 -58 -4 -88 21 -17 14 -47 31 -65 36 -53 14 -87 51 -87
95 0 71 60 131 172 174 41 15 77 20 159 20 117 0 120 1 190 86 50 61 144 118
244 148 66 19 87 19 172 -3z m-5053 -539 c3 -5 43 -30 88 -57 125 -71 148 -91
148 -125 0 -20 -26 -68 -79 -147 -43 -65 -98 -149 -123 -188 -25 -38 -58 -90
-74 -114 -16 -24 -34 -51 -39 -60 -59 -92 -180 -268 -189 -273 -23 -15 -78 -7
-116 17 -22 14 -43 25 -47 25 -4 0 -17 10 -30 22 -36 34 -29 71 42 216 36 74
65 135 65 137 0 3 22 48 48 102 26 54 79 166 117 248 88 191 98 205 146 205
21 0 40 -4 43 -8z m-784 -1141 c0 -11 -17 -41 -38 -68 -45 -58 -104 -153 -127
-208 -92 -216 -139 -377 -155 -530 -5 -49 -10 -149 -10 -220 0 -153 -5 -165
-93 -244 -45 -40 -65 -51 -85 -49 -26 3 -27 5 -35 93 -17 178 24 492 88 675
35 100 90 208 158 311 106 161 297 315 297 240z m3436 -1500 c32 -10 89 -24
126 -30 36 -6 84 -18 106 -25 22 -8 80 -22 128 -31 48 -9 96 -21 106 -26 10
-6 60 -17 110 -25 51 -8 97 -19 103 -24 6 -5 51 -16 101 -24 49 -8 105 -21
124 -29 19 -8 67 -20 106 -26 39 -6 90 -17 113 -26 23 -8 82 -22 129 -31 48
-9 92 -20 98 -25 5 -4 44 -13 85 -19 40 -6 99 -19 129 -29 30 -10 78 -22 105
-25 28 -4 77 -16 110 -26 33 -11 92 -24 130 -30 39 -6 84 -17 101 -25 17 -8
67 -20 110 -26 44 -7 91 -18 105 -25 14 -7 67 -20 116 -28 50 -8 99 -19 109
-24 11 -5 58 -17 106 -26 47 -9 101 -23 120 -30 18 -8 69 -19 113 -26 44 -7
92 -18 106 -25 14 -8 62 -19 106 -25 45 -6 95 -17 111 -26 17 -8 68 -21 114
-28 46 -8 99 -21 118 -29 19 -8 62 -18 95 -22 33 -4 86 -16 117 -26 32 -10 86
-23 120 -28 35 -5 81 -16 103 -25 22 -9 73 -21 114 -27 41 -6 87 -17 102 -25
15 -7 60 -18 101 -24 40 -6 98 -19 128 -30 30 -10 80 -22 110 -26 30 -3 78
-15 105 -25 28 -10 85 -23 128 -28 43 -6 90 -17 105 -25 15 -8 63 -19 105 -25
43 -6 91 -18 107 -26 16 -8 64 -20 107 -26 43 -7 98 -20 123 -29 25 -10 73
-21 105 -25 33 -4 82 -16 109 -26 27 -10 77 -21 110 -25 34 -4 81 -15 106 -25
25 -10 77 -23 115 -29 39 -6 93 -19 120 -29 28 -10 77 -22 110 -26 33 -4 75
-13 94 -21 19 -8 74 -21 122 -29 48 -7 101 -21 118 -29 16 -9 40 -16 53 -16
36 0 68 -11 68 -24 0 -10 -86 -73 -115 -85 -5 -2 -28 -16 -50 -30 -22 -14 -48
-30 -57 -36 -60 -36 -134 -83 -208 -130 -47 -30 -105 -66 -130 -80 -49 -28
-52 -29 -155 -95 -38 -25 -107 -68 -153 -95 -45 -28 -101 -62 -125 -77 -23
-15 -58 -37 -77 -48 -19 -11 -55 -34 -80 -50 -25 -15 -83 -52 -130 -80 -47
-28 -104 -64 -128 -78 -23 -15 -111 -69 -195 -121 -83 -51 -169 -105 -191
-119 -21 -15 -46 -31 -56 -37 -23 -13 -122 -73 -169 -103 -20 -12 -52 -31 -71
-42 -19 -11 -62 -38 -95 -60 -33 -21 -70 -44 -82 -49 -11 -5 -24 -14 -27 -20
-4 -6 -26 -19 -49 -29 -23 -10 -48 -26 -56 -35 -7 -10 -19 -17 -25 -17 -7 0
-28 -12 -47 -26 -19 -14 -43 -30 -54 -35 -11 -5 -40 -23 -65 -39 -25 -16 -63
-39 -84 -51 -21 -11 -44 -25 -50 -30 -6 -5 -49 -32 -96 -60 -79 -47 -113 -69
-230 -144 -46 -30 -70 -44 -137 -82 -22 -12 -45 -29 -52 -37 -8 -9 -19 -16
-25 -16 -6 0 -31 -14 -56 -31 -25 -16 -54 -35 -65 -40 -11 -5 -40 -23 -65 -39
-25 -17 -65 -40 -89 -51 -40 -20 -48 -20 -105 -9 -33 7 -77 21 -96 31 -20 9
-54 21 -75 25 -22 3 -56 15 -75 25 -20 9 -54 21 -75 25 -22 3 -60 17 -85 29
-25 12 -63 25 -85 29 -22 4 -50 14 -62 22 -12 7 -43 18 -69 24 -27 6 -62 17
-79 25 -36 17 -159 60 -234 81 -29 8 -70 24 -90 35 -19 10 -47 19 -62 19 -14
0 -46 11 -70 23 -24 13 -61 27 -83 31 -21 4 -57 16 -80 26 -45 20 -139 52
-226 76 -30 9 -69 23 -85 33 -17 10 -49 21 -72 24 -23 4 -57 16 -75 26 -18 10
-51 22 -73 26 -21 4 -52 13 -68 22 -16 8 -55 21 -86 29 -31 8 -65 21 -76 28
-11 7 -44 18 -72 24 -29 7 -69 21 -90 32 -21 11 -49 20 -63 20 -14 0 -47 11
-75 25 -27 13 -58 25 -68 25 -10 0 -42 11 -70 24 -29 13 -68 27 -87 31 -19 4
-53 16 -75 25 -22 10 -56 22 -75 25 -19 4 -53 16 -74 26 -22 10 -55 22 -75 25
-20 4 -52 15 -72 25 -20 10 -58 23 -85 30 -27 6 -59 17 -70 25 -12 7 -50 20
-84 29 -34 9 -72 22 -84 30 -11 7 -45 18 -75 24 -30 6 -61 17 -68 23 -7 6 -41
19 -76 29 -85 25 -205 66 -244 84 -17 8 -46 18 -65 22 -18 3 -46 12 -62 20
-16 9 -57 23 -90 33 -34 10 -106 35 -161 55 -55 19 -120 42 -145 49 -25 7 -59
20 -75 29 -17 8 -48 19 -70 23 -22 4 -62 18 -90 30 -27 13 -58 24 -68 24 -10
0 -39 9 -64 21 -25 11 -71 27 -101 35 -31 8 -61 19 -67 24 -5 5 -33 14 -60 21
-28 6 -66 20 -86 30 -20 10 -58 23 -85 30 -27 7 -58 18 -69 25 -11 7 -38 16
-60 20 -22 4 -58 15 -80 25 -46 21 -167 63 -240 84 -27 8 -63 21 -80 28 -35
17 -139 52 -210 72 -27 8 -70 23 -95 33 -51 22 -117 45 -205 73 -33 10 -105
35 -160 55 -55 19 -120 42 -145 49 -78 24 -224 75 -255 89 -16 8 -46 17 -65
21 -19 4 -51 15 -70 25 -19 10 -51 21 -70 25 -19 4 -53 16 -75 26 -22 10 -62
24 -90 32 -64 19 -145 56 -145 66 0 9 88 37 162 50 32 6 71 17 88 26 17 9 56
20 86 26 31 6 72 19 93 29 20 10 58 21 86 25 27 4 65 15 85 25 19 10 55 21 80
25 25 4 64 15 88 26 24 10 71 23 105 30 34 6 67 15 73 20 5 4 46 17 90 28 43
11 99 26 124 35 25 8 86 26 135 41 50 14 124 37 165 50 41 13 99 28 128 34 29
6 65 17 80 25 15 7 53 19 85 26 33 6 78 20 100 31 23 10 52 19 65 19 12 0 48
9 80 21 31 11 85 27 120 35 34 8 75 20 90 28 15 8 53 19 84 25 32 5 70 17 85
24 16 8 46 17 68 21 22 4 74 18 115 31 41 14 116 37 165 51 50 14 117 35 150
46 33 11 90 26 128 34 37 7 80 20 95 27 15 8 41 17 57 21 32 7 150 42 255 76
36 11 94 28 129 36 36 8 69 18 75 23 6 5 43 16 81 25 39 8 90 22 115 30 25 8
90 28 145 45 55 16 143 44 195 61 83 26 105 30 176 26 44 -3 107 -14 140 -25z"/>
<path d="M7520 6037 c6 -6 178 -67 188 -67 4 0 -16 13 -44 29 -41 24 -161 56
-144 38z"/>
<path d="M7847 5900 c-39 -12 -125 -71 -169 -117 -43 -44 -82 -128 -91 -193
-9 -65 8 -166 37 -226 35 -72 117 -143 209 -182 95 -40 145 -41 238 -4 170 65
272 242 242 417 -14 80 -45 146 -92 194 -29 30 -60 46 -154 79 -117 41 -165
48 -220 32z"/>
<path d="M3075 5629 c-85 -14 -191 -55 -235 -90 -23 -18 -58 -63 -78 -99 l-37
-65 -5 -245 c-3 -134 -3 -692 0 -1240 l5 -995 41 -62 c69 -103 133 -146 266
-175 87 -19 123 -20 548 -19 l455 2 145 30 c351 72 604 231 799 501 141 196
203 344 258 613 15 73 18 138 18 350 0 232 -3 272 -23 368 -33 158 -95 339
-139 406 -21 32 -49 77 -63 100 -32 54 -139 189 -188 237 -82 80 -219 176
-322 226 -156 75 -277 108 -509 139 -204 27 -235 29 -551 28 -184 -1 -358 -5
-385 -10z m782 -610 c163 -23 250 -54 349 -125 83 -58 180 -157 206 -208 11
-22 26 -48 32 -56 11 -14 56 -127 70 -176 19 -66 36 -214 36 -320 0 -130 -33
-344 -65 -419 -95 -224 -193 -336 -360 -412 -129 -58 -234 -76 -471 -81 l-212
-4 -33 30 -34 30 0 850 c0 932 -4 870 60 898 47 21 256 17 422 -7z"/>
<path d="M6010 4934 c-153 -58 -224 -134 -250 -269 -8 -43 -10 -309 -8 -945
l3 -885 29 -59 c40 -81 88 -132 160 -169 158 -80 339 -4 413 173 l27 65 6 565
5 565 30 60 c39 79 127 149 245 198 25 10 68 29 97 43 28 13 56 24 61 24 22 0
220 85 254 109 21 15 49 50 65 81 24 48 28 66 28 140 0 77 -3 91 -35 155 -34
68 -37 71 -115 110 -71 36 -89 40 -166 43 -77 4 -94 1 -164 -27 -84 -34 -109
-49 -198 -123 -82 -68 -101 -66 -169 17 -46 56 -63 69 -128 97 -71 30 -157 44
-190 32z"/>
<path d="M7852 4906 c-102 -34 -137 -64 -181 -155 l-36 -76 -5 -875 c-3 -601
-2 -894 6 -935 31 -173 159 -289 319 -289 57 0 80 5 125 28 88 45 126 94 165
210 l25 75 0 833 c0 497 -4 857 -10 893 -19 116 -80 229 -142 261 -99 51 -175
60 -266 30z"/>
<path d="M10025 4923 c-250 -53 -222 -41 -433 -189 -46 -33 -55 -36 -78 -26
-14 7 -33 26 -42 44 -34 63 -91 116 -145 135 -81 27 -209 24 -272 -7 -60 -30
-106 -95 -135 -187 -20 -64 -20 -91 -21 -1392 l0 -1327 22 -68 c17 -53 34 -79
78 -125 31 -33 74 -67 96 -77 75 -36 87 -118 20 -137 -85 -25 -116 -47 -137
-94 -17 -39 -19 -52 -9 -83 13 -44 47 -90 66 -90 7 0 18 -6 24 -14 7 -8 27
-17 45 -20 18 -4 42 -16 52 -27 18 -20 19 -47 24 -398 6 -414 5 -414 70 -478
18 -18 50 -38 72 -45 36 -11 45 -9 84 11 28 16 53 40 71 70 l28 46 5 387 c4
326 7 390 20 402 8 8 47 21 85 29 77 16 139 48 156 80 24 44 28 77 13 120 -20
55 -69 87 -152 97 -80 10 -109 29 -118 77 -4 21 -1 119 6 218 8 99 15 325 17
503 2 197 7 331 13 343 17 30 59 23 149 -26 46 -24 119 -56 164 -72 72 -24 97
-27 207 -27 111 -1 137 3 230 31 305 90 499 255 636 543 52 108 79 190 106
315 19 95 23 139 23 320 0 217 -10 289 -62 444 -55 168 -199 373 -345 495
-141 118 -209 148 -403 180 -157 25 -189 28 -230 19z m126 -636 c49 -24 142
-108 176 -160 42 -61 78 -152 98 -242 20 -89 16 -238 -8 -315 -76 -239 -192
-362 -371 -393 -56 -9 -75 -8 -151 11 -168 41 -269 139 -347 337 -30 75 -32
88 -32 215 -1 117 2 145 23 210 14 41 35 93 48 116 27 48 140 174 156 174 6 0
20 9 32 20 35 33 119 50 235 47 75 -2 115 -8 141 -20z"/>
<path d="M12140 2132 c-19 -10 -48 -41 -65 -67 l-30 -48 0 -781 0 -781 28 -47
c53 -92 131 -120 202 -73 22 15 51 45 65 68 23 40 25 51 28 242 2 116 8 205
14 213 16 19 62 14 84 -8 44 -46 160 -194 212 -271 35 -52 178 -216 211 -242
71 -56 169 -22 210 73 12 27 21 60 21 74 0 49 -61 154 -144 248 -8 9 -22 30
-30 47 -9 16 -20 31 -25 33 -5 1 -24 24 -43 49 -18 26 -52 70 -75 99 -65 79
-56 118 43 205 121 105 174 170 192 237 20 74 -19 154 -88 182 -82 33 -131 4
-331 -199 -90 -91 -175 -168 -187 -172 -15 -3 -30 0 -40 11 -15 15 -18 60 -22
404 -5 372 -6 389 -27 427 -43 82 -133 115 -203 77z"/>
<path d="M10180 2107 c-69 -36 -103 -86 -108 -157 -3 -47 0 -68 18 -106 25
-51 87 -97 145 -108 92 -18 205 92 205 199 0 72 -48 146 -115 176 -54 25 -93
24 -145 -4z"/>
<path d="M8075 1971 c-79 -17 -107 -29 -195 -85 -133 -86 -220 -245 -220 -403
0 -26 10 -83 21 -127 20 -75 26 -85 83 -141 65 -64 173 -124 270 -150 28 -7
76 -22 106 -33 30 -11 80 -27 110 -36 82 -23 146 -68 171 -119 19 -38 20 -48
9 -87 -17 -64 -65 -105 -153 -131 l-71 -22 -97 22 c-53 12 -124 32 -158 46
-129 50 -208 43 -261 -25 -78 -98 -28 -216 122 -288 80 -39 291 -82 395 -82
139 0 345 65 423 133 29 25 110 122 110 131 0 3 11 29 25 58 34 74 44 128 45
239 0 126 -9 151 -94 262 -49 64 -218 159 -331 186 -27 7 -101 28 -163 48 -96
31 -118 42 -147 75 -29 32 -35 46 -35 84 0 38 5 50 32 75 18 16 49 34 68 39
62 17 209 12 296 -11 47 -12 96 -19 121 -16 78 8 132 74 133 162 0 69 -26 106
-115 159 -87 51 -344 71 -500 37z"/>
<path d="M13900 1603 c-260 -43 -437 -192 -521 -438 -21 -62 -24 -88 -24 -220
0 -140 2 -155 29 -227 19 -53 47 -100 91 -155 102 -127 188 -183 350 -228 135
-38 226 -38 360 -1 226 62 363 175 335 278 -28 101 -155 112 -322 27 -51 -26
-204 -37 -272 -20 -53 13 -151 72 -166 100 -15 29 -12 56 9 75 17 15 53 18
337 20 314 3 320 4 363 27 31 17 52 38 69 69 21 40 23 53 18 122 -13 156 -102
341 -207 429 -111 92 -142 107 -288 134 -82 15 -112 16 -161 8z m178 -297 c35
-18 100 -88 112 -122 16 -41 12 -80 -11 -100 -19 -17 -38 -19 -214 -19 -172 0
-195 2 -213 18 -30 28 -32 51 -7 104 25 55 92 120 132 129 16 3 33 8 38 10 21
8 136 -6 163 -20z"/>
<path d="M11200 1578 c-98 -13 -232 -83 -303 -157 -190 -197 -233 -517 -107
-785 33 -69 56 -99 131 -175 66 -65 105 -86 227 -122 132 -38 192 -44 257 -26
28 8 75 22 106 30 103 29 189 102 210 179 14 53 -8 116 -50 141 -42 24 -123
21 -206 -8 -95 -34 -159 -33 -238 3 -110 51 -177 151 -177 266 0 74 21 170 46
213 13 23 45 59 71 80 l46 38 136 0 c122 0 140 -2 178 -22 54 -30 78 -29 125
3 47 33 73 95 66 158 -8 68 -39 100 -158 162 -28 15 -180 34 -250 33 -25 -1
-74 -6 -110 -11z"/>
<path d="M10213 1573 c-49 -6 -108 -77 -123 -147 -17 -81 -9 -949 8 -991 32
-74 123 -135 180 -120 34 8 92 52 92 69 0 8 6 19 14 25 8 7 17 27 20 46 4 19
7 246 7 504 0 506 0 511 -54 570 -23 25 -78 52 -99 49 -7 0 -27 -3 -45 -5z"/>
<path d="M15380 1571 c-19 -4 -66 -26 -104 -49 -39 -23 -74 -42 -78 -42 -16 0
-62 27 -103 60 -38 31 -43 32 -108 27 -77 -5 -104 -23 -139 -90 -18 -37 -19
-61 -19 -516 0 -482 1 -497 38 -568 24 -46 103 -87 151 -78 50 9 88 39 114 88
21 40 23 59 28 347 7 320 10 340 57 397 20 24 191 113 217 113 21 0 71 25 113
58 64 48 68 144 10 206 -45 47 -100 62 -177 47z"/>
<path d="M16175 1556 c-22 -7 -57 -20 -77 -29 -21 -9 -41 -17 -45 -17 -4 0
-27 -16 -51 -34 -24 -19 -47 -36 -51 -38 -19 -8 -83 -116 -97 -166 -30 -103
-4 -223 61 -289 40 -39 136 -95 210 -121 166 -58 202 -74 228 -102 48 -53 33
-106 -41 -137 -43 -18 -104 -9 -199 28 -120 48 -164 55 -218 34 -56 -21 -85
-62 -85 -122 0 -79 103 -177 219 -209 31 -8 80 -22 108 -30 84 -25 175 -21
278 11 50 16 108 41 130 56 138 94 206 267 159 405 -16 47 -79 144 -94 144 -5
0 -21 10 -37 23 -31 25 -143 74 -241 107 -123 40 -175 91 -150 145 23 51 156
59 241 15 28 -15 66 -25 114 -28 l72 -5 35 39 c48 53 56 95 26 152 -35 66 -94
107 -206 147 -81 28 -113 34 -174 34 -41 -1 -93 -6 -115 -13z"/>
</g>
</svg>
